<svg width="250.217" height="67.5005" overflow="visible" style="display: block;" viewBox="0 0 250.217 67.5005" fill="none" xmlns="http://www.w3.org/2000/svg">
<g id="Logo-Rixos">
<path id="Vector" fill-rule="evenodd" clip-rule="evenodd" d="M107.531 56.8969C108.934 56.8969 110.114 57.3547 111.071 58.2644C112.112 59.2503 112.63 60.5639 112.63 62.2018C112.63 63.8691 112.093 65.1947 111.017 66.1787C110.055 67.0613 108.894 67.4993 107.531 67.5005C106.072 67.5005 104.864 67.0125 103.9 66.0371C102.923 65.0426 102.434 63.7642 102.434 62.2018C102.434 60.5639 102.955 59.2468 103.999 58.2566C104.957 57.3508 106.133 56.8985 107.531 56.8969ZM147.911 56.8969V57.1879C147.249 57.2174 146.804 57.3115 146.574 57.4698C146.35 57.6285 146.24 57.9647 146.24 58.486V65.9969C146.24 66.1713 146.273 66.3087 146.336 66.4099C146.406 66.5068 146.557 66.5674 146.785 66.593C146.922 66.6079 147.062 66.6182 147.209 66.6229C147.361 66.6292 147.641 66.6316 148.053 66.6316C149.654 66.6316 150.735 66.5166 151.3 66.2863C151.862 66.0575 152.407 65.4736 152.935 64.5319H153.395L152.512 67.2418H142.816V66.9595C143.479 66.8977 143.907 66.7973 144.101 66.654C144.302 66.5068 144.401 66.1367 144.401 65.5465V58.5923C144.401 58.0367 144.304 57.6765 144.111 57.5084C143.917 57.3351 143.488 57.2284 142.816 57.1879V56.8969H147.911ZM92.4659 56.8969V57.1879C91.8941 57.2284 91.5226 57.3328 91.3524 57.4997C91.1803 57.6678 91.0945 58.0328 91.0945 58.5923V61.6373H95.7925V58.5923C95.7925 58.0328 95.7102 57.6678 95.5447 57.4997C95.3777 57.3328 95.0061 57.2284 94.4332 57.1879V56.8969H98.7371V57.1879C98.1692 57.2284 97.7961 57.3328 97.626 57.4997C97.4578 57.6678 97.3758 58.0328 97.3758 58.5923V65.5465C97.3758 66.1166 97.4578 66.4843 97.626 66.6465C97.7961 66.8036 98.1692 66.9087 98.7371 66.9595V67.2418H94.4332V66.9595C95.0428 66.8977 95.4206 66.7863 95.565 66.6229C95.7172 66.4607 95.7925 66.0414 95.7925 65.3618V62.3251H91.0945V65.5465C91.0945 66.1166 91.1803 66.4843 91.3524 66.6465C91.5226 66.8095 91.8941 66.9139 92.4659 66.9595V67.2418H88.1581V66.9595C88.7642 66.8926 89.142 66.7812 89.2938 66.6229C89.4448 66.4607 89.5209 66.0414 89.5209 65.3618V58.5923C89.5209 58.0328 89.4339 57.6678 89.2633 57.4997C89.0963 57.3328 88.7287 57.2284 88.1581 57.1879V56.8969H92.4659ZM126.851 56.8969L126.948 59.5538H126.511C126.295 58.7199 126.018 58.1766 125.685 57.9277C125.357 57.6742 124.661 57.545 123.597 57.545H122.573V65.5468C122.573 66.1532 122.686 66.5292 122.906 66.6764C123.126 66.8201 123.61 66.9138 124.358 66.9599V67.2418H119.008V66.9599C119.783 66.9079 120.268 66.7989 120.456 66.6308C120.649 66.4622 120.746 66.0406 120.746 65.3637V57.545H119.724C118.707 57.545 118.013 57.6718 117.644 57.9206C117.278 58.1703 117.004 58.7132 116.819 59.5538H116.369L116.476 56.8969H126.851ZM163.275 56.8969L163.618 60.0947H163.244C162.991 59.131 162.578 58.4595 162.012 58.078C161.449 57.6958 160.892 57.5068 160.338 57.5068C159.911 57.5068 159.534 57.6293 159.212 57.8724C158.894 58.1124 158.737 58.4467 158.737 58.8781C158.737 59.2629 158.859 59.5945 159.104 59.8678C159.35 60.1457 159.732 60.4368 160.246 60.7389L161.628 61.5541C162.491 62.0614 163.098 62.5269 163.453 62.9537C163.799 63.3839 163.971 63.8921 163.974 64.4792C163.974 65.266 163.661 65.9227 163.038 66.4505C162.418 66.9779 161.628 67.2418 160.663 67.2418C160.175 67.2418 159.667 67.1537 159.135 66.9779C158.61 66.8025 158.308 66.7144 158.231 66.7144C158.047 66.7144 157.923 66.7677 157.857 66.8759C157.795 66.984 157.754 67.0982 157.731 67.2191H157.388L156.921 64.024H157.28C157.545 64.6989 157.858 65.2361 158.216 65.6369C158.84 66.3363 159.614 66.6845 160.537 66.6845C161.039 66.6845 161.47 66.5341 161.834 66.2309C162.202 65.9276 162.386 65.5046 162.386 64.9628C162.386 64.4732 162.202 64.049 161.834 63.6853C161.593 63.4562 161.088 63.1129 160.316 62.6528L158.976 61.8546C158.57 61.6096 158.248 61.3624 158.007 61.1132C157.565 60.6387 157.341 60.1174 157.341 59.5446C157.341 58.7873 157.605 58.1563 158.132 57.6527C158.658 57.1502 159.354 56.8981 160.224 56.8969C160.582 56.8969 161.012 56.9828 161.512 57.1552C162.018 57.3211 162.306 57.4043 162.38 57.4043C162.572 57.4043 162.705 57.3605 162.776 57.2727C162.854 57.1847 162.911 57.0599 162.954 56.8969H163.275ZM138.302 56.8969L138.362 59.1419H137.904C137.751 58.4501 137.521 58.0021 137.216 57.7978C136.912 57.595 136.229 57.4922 135.172 57.4922H132.72C132.455 57.4922 132.293 57.5304 132.227 57.6072C132.168 57.6792 132.139 57.8151 132.139 58.0194V61.5085H134.917C135.685 61.5085 136.176 61.4085 136.388 61.2105C136.599 61.0128 136.771 60.6105 136.899 60.0041H137.322V63.6232H136.899C136.765 63.0184 136.592 62.6176 136.381 62.4243C136.169 62.2267 135.681 62.1263 134.917 62.1263H132.139V65.9969C132.139 66.3087 132.253 66.4918 132.474 66.5473C132.703 66.6032 133.383 66.6316 134.512 66.6316C135.733 66.6316 136.635 66.5166 137.216 66.2863C137.798 66.0524 138.322 65.491 138.785 64.6012H139.29L138.468 67.2418H128.711V66.9595C129.374 66.8977 129.801 66.7973 129.998 66.654C130.197 66.5068 130.298 66.1367 130.298 65.5465V58.5923C130.298 58.0367 130.199 57.6765 130.006 57.5084C129.812 57.3351 129.381 57.2284 128.711 57.1879V56.8969H138.302ZM107.531 57.4541C106.6 57.4541 105.809 57.8422 105.16 58.6169C104.517 59.388 104.198 60.5821 104.198 62.2018C104.198 63.8192 104.517 65.0148 105.16 65.7894C105.806 66.5602 106.595 66.9444 107.531 66.9444C108.449 66.9444 109.231 66.5699 109.879 65.8196C110.533 65.0647 110.858 63.859 110.858 62.2018C110.858 60.5271 110.531 59.3172 109.87 58.5716C109.213 57.8263 108.435 57.4557 107.531 57.4541ZM114.13 8.78077L125.111 24.326L136.089 8.78077H141.464L128.474 28.218L140.434 46.0212L250.217 46.1767L228.578 49.4964L137.436 49.8061L125.111 31.6683L112.784 49.8061L21.6417 49.4964L0 46.1767L109.785 46.0212L121.745 28.218L108.756 8.78077H114.13ZM210.01 15.5173L210.787 23.5088H209.94C209.365 21.102 208.44 19.4213 207.165 18.4675C205.899 17.515 204.647 17.0389 203.404 17.0389C202.438 17.0389 201.591 17.3445 200.869 17.956C200.157 18.5532 199.799 19.3903 199.799 20.466C199.799 21.4316 200.076 22.2572 200.626 22.9405C201.179 23.6381 202.034 24.3638 203.198 25.1214L206.301 27.1557C208.244 28.4264 209.613 29.5931 210.408 30.6562C211.188 31.7319 211.578 33.0035 211.579 34.4692C211.579 36.4358 210.878 38.0794 209.476 39.3999C208.083 40.7191 206.301 41.3796 204.128 41.3796C203.036 41.3796 201.892 41.1589 200.696 40.7191C199.51 40.2794 198.831 40.0587 198.661 40.0587C198.247 40.0587 197.964 40.1933 197.815 40.4638C197.676 40.7322 197.585 41.0178 197.539 41.3229H196.764L195.711 33.3331H196.522C197.119 35.0191 197.821 36.364 198.625 37.3651C200.029 39.1127 201.772 39.9873 203.853 39.9873C204.978 39.9873 205.95 39.6075 206.766 38.85C207.597 38.0924 208.009 37.0343 208.009 35.6791C208.009 34.4573 207.597 33.3947 206.766 32.4895C206.227 31.9151 205.088 31.0535 203.351 29.906L200.336 27.9071C199.425 27.2985 198.702 26.6805 198.161 26.0572C197.16 24.8713 196.66 23.5651 196.66 22.134C196.66 20.2392 197.252 18.6637 198.435 17.4057C199.62 16.1468 201.19 15.5173 203.144 15.5173C203.949 15.5173 204.917 15.7327 206.041 16.1582C207.182 16.5747 207.829 16.7815 207.992 16.7815C208.428 16.7815 208.728 16.6726 208.889 16.4531C209.061 16.2329 209.194 15.9212 209.284 15.5173H210.01ZM163.974 15.5173C167.372 15.5173 170.227 16.627 172.545 18.8485C175.061 21.2516 176.316 24.4564 176.316 28.4584C176.316 32.5212 175.017 35.7566 172.415 38.1572C170.086 40.3053 167.272 41.3796 163.974 41.3796C160.444 41.3796 157.513 40.1917 155.184 37.8114C152.817 35.3826 151.632 32.2662 151.632 28.4584C151.632 24.4564 152.895 21.2467 155.422 18.8305C157.739 16.6221 160.59 15.5186 163.974 15.5173ZM163.974 16.8719C161.717 16.8719 159.804 17.8178 158.237 19.7088C156.679 21.5885 155.901 24.5049 155.901 28.4584C155.901 32.3994 156.679 35.3162 158.237 37.2072C159.793 39.0869 161.706 40.0251 163.974 40.0251C166.192 40.0251 168.088 39.1097 169.658 37.2802C171.241 35.4376 172.031 32.4968 172.031 28.4584C172.031 24.3708 171.234 21.4182 169.64 19.5988C168.045 17.7807 166.156 16.8731 163.974 16.8719ZM91.6844 15.5173V16.1953C90.229 16.2663 89.2865 16.4982 88.8564 16.8896C88.4255 17.2694 88.2107 18.1317 88.2107 19.4726V35.7013C88.2107 37.1144 88.4255 37.993 88.8564 38.3367C89.2865 38.6698 90.229 38.889 91.6844 38.9961V39.6554H81.1054V38.9961C82.5596 38.889 83.5034 38.6698 83.9331 38.3367C84.3643 37.993 84.5792 37.1144 84.5792 35.7013V19.4726C84.5792 18.1317 84.3643 17.2694 83.9331 16.8896C83.5034 16.4982 82.5596 16.2663 81.1054 16.1953V15.5173H91.6844ZM48.6645 15.5173C50.7204 15.5173 52.432 15.785 53.8039 16.3186C56.4029 17.3289 57.7056 19.1868 57.7056 21.8948C57.7056 23.7127 57.1256 25.1084 55.9634 26.0817C54.8143 27.0563 53.2461 27.6966 51.2589 28.0043L58.6119 37.2504C59.064 37.8213 59.516 38.2372 59.9696 38.4977C60.4216 38.7594 61.0016 38.9251 61.7107 38.9961V39.6554H55.9634L47.4623 28.4329L45.4775 28.5205V35.7017C45.4775 37.0561 45.6752 37.9157 46.071 38.2848C46.4765 38.6412 47.3526 38.8779 48.699 38.9961V39.6554H38.7896V38.9961C40.1592 38.8652 41.0118 38.5925 41.3494 38.1765C41.6848 37.7614 41.8538 36.7932 41.8538 35.2731V19.4723C41.8538 18.1889 41.6638 17.3527 41.2788 16.9613C40.9074 16.5577 40.0786 16.3024 38.7896 16.1953V15.5173H48.6645ZM47.6733 16.9078C46.6607 16.9078 46.0403 16.9839 45.8089 17.1382C45.5871 17.2817 45.4775 17.6255 45.4775 18.1726V27.1697C48.0447 27.0721 49.8783 26.7994 50.9824 26.3482C52.8747 25.5532 53.8199 24.0569 53.8199 21.8587C53.8199 19.7451 52.9732 18.3023 51.2787 17.5307C50.3731 17.1148 49.1693 16.909 47.6733 16.9078ZM125.185 0L128.049 3.77655L126.428 12.9635L129.777 3.77655H134L125.185 17.2415L116.369 3.77655H120.592L123.943 12.9635L122.322 3.77655L125.185 0Z" fill="var(--fill-0, white)"/>
</g>
</svg>
