<svg preserveAspectRatio="none" width="100%" height="100%" overflow="visible" style="display: block;" viewBox="0 0 53.8281 54.154" fill="none" xmlns="http://www.w3.org/2000/svg">
<path id="Vector 6423" d="M34.2293 8.83725C34.6632 8.9176 35.1112 8.82229 35.4748 8.57229C35.8385 8.3223 36.0879 7.93809 36.1682 7.5042C36.2486 7.07031 36.1533 6.62228 35.9033 6.25866C35.6533 5.89504 35.2691 5.64562 34.8352 5.56528C34.8352 5.56528 34.8352 5.56528 34.8352 5.56528C31.3741 4.93966 27.9483 5.36748 24.7462 6.20031C20.7371 7.26175 17.0143 9.00377 13.5294 11.0672C13.5011 11.084 13.4729 11.1008 13.4446 11.1176C5.10476 16.2508 2.69012 25.8726 0.548499 33.9654C0.545697 33.9763 0.5429 33.9871 0.540102 33.998C-0.383599 37.2413 -0.198396 41.32 1.68895 44.3898C1.70554 44.4187 1.72224 44.4477 1.73905 44.4766C5.74623 51.2994 13.7124 53.8398 20.7928 54.1362C20.821 54.1373 20.8492 54.1383 20.8773 54.1393C26.0413 54.3195 30.9637 52.8262 35.4867 51.0161C35.5324 50.9978 35.5781 50.9795 35.6239 50.961C47.9864 44.8447 52.7638 31.5671 53.8281 18.8866C53.8263 18.814 53.8238 18.7415 53.8205 18.669C53.546 14.1332 50.8851 10.5794 47.9812 7.85176C47.9427 7.81628 47.9041 7.78095 47.8655 7.74579C40.5455 1.31837 30.8676 0.493026 22.1622 0.00137544L22.0272 0C21.9916 0.002298 21.9561 0.00465536 21.9205 0.00707185C17.415 0.333862 13.3348 2.24631 9.3122 3.78213C9.24245 3.80907 9.17303 3.8358 9.10395 3.86234C9.09076 3.86741 9.07757 3.87247 9.06441 3.87752C6.1792 4.95893 3.4729 6.48603 0.895611 8.13912C0.852196 8.16639 0.821391 8.20978 0.809974 8.25976C0.798556 8.30974 0.80746 8.36221 0.834727 8.40563C0.861995 8.44904 0.905392 8.47985 0.955372 8.49126C1.00535 8.50268 1.05782 8.49378 1.10123 8.46651C1.10123 8.46651 1.10123 8.46651 1.10123 8.46651C3.67927 6.81354 6.34283 5.31126 9.20291 4.23847C9.21596 4.23346 9.22903 4.22847 9.24211 4.22348C9.31065 4.19736 9.3797 4.17153 9.44927 4.14599C13.5085 2.6723 17.9183 2.54702 22.0386 2.42049C22.0716 2.41955 22.1046 2.41866 22.1375 2.41783L22.0026 2.41646C30.5657 3.19076 39.664 4.5232 45.7149 10.0825C45.7473 10.1128 45.7796 10.1432 45.8118 10.1737C48.3451 12.5772 50.4305 15.6796 50.5791 18.8146C50.5813 18.865 50.5831 18.9153 50.5843 18.9655C49.8049 29.9883 44.6314 43.2982 34.4374 48.0153C34.3935 48.033 34.3496 48.0506 34.3057 48.0682C29.9596 49.8123 25.4612 51.1275 20.987 50.9654C20.9617 50.9646 20.9365 50.9637 20.9112 50.9627C14.4673 50.7158 7.59383 48.2964 4.48481 42.881C4.47158 42.8583 4.45846 42.8355 4.44546 42.8128C3.01272 40.4023 2.9235 37.6487 3.69441 34.8152C3.69723 34.8044 3.70004 34.7936 3.70287 34.7828C5.80036 26.7019 8.36578 18.0377 15.1482 13.976C15.1749 13.9601 15.2015 13.9443 15.2282 13.9285C18.51 11.9833 21.9844 10.3718 25.5921 9.4186C28.4686 8.6642 31.4698 8.33131 34.2293 8.83725Z" fill="var(--stroke-0, #3A63F4)"/>
</svg>
