<svg width="127" height="24.1905" overflow="visible" style="display: block;" viewBox="0 0 127 24.1905" fill="none" xmlns="http://www.w3.org/2000/svg">
<g id="ANEX Logo: Illustrations" clip-path="url(#clip0_0_20)">
<path id="Vector" d="M93.7625 0.358732H93.5609V23.899H93.7625V0.358732Z" fill="var(--fill-0, #58595B)"/>
<g id="Vector_2">
<path d="M101.702 2.08502C100.216 3.47496 99.4619 5.24611 99.4619 7.3535C99.4619 9.10227 99.9719 10.7389 100.97 12.241C101.835 13.5188 103.341 15.1554 105.625 17.2405L109.172 20.6033C109.815 21.0966 110.747 20.9845 111.257 20.4016C111.811 19.7739 111.767 18.8098 111.168 18.2269C109.328 16.5455 109.616 16.7921 107.776 15.1107C105.869 13.3844 104.539 11.9271 103.807 10.7612C103.12 9.68516 102.765 8.56424 102.765 7.44321C102.765 6.14287 103.208 5.11165 104.095 4.28212C105.027 3.43021 106.091 3.02663 107.399 3.02663C108.685 3.02663 109.86 3.36288 110.858 4.03548C111.479 4.48391 112.122 5.08917 112.787 5.87385C112.787 5.87385 112.787 5.87385 112.765 5.87385C112.942 6.12049 113.252 6.5913 113.386 7.28627C113.541 8.18303 113.275 8.90048 113.142 9.1695C113.652 9.1695 114.36 8.92286 114.937 8.29512C115.513 7.645 116.245 5.24611 114.671 3.36288C114.272 2.89207 113.873 2.33166 112.632 1.50213C111.146 0.515661 109.305 0 107.222 0C105.049 0 103.186 0.717449 101.702 2.08502Z" fill="white"/>
<path d="M101.702 2.08502C100.216 3.47496 99.4619 5.24611 99.4619 7.3535C99.4619 9.10227 99.9719 10.7389 100.97 12.241C101.835 13.5188 103.341 15.1554 105.625 17.2405L109.172 20.6033C109.815 21.0966 110.747 20.9845 111.257 20.4016C111.811 19.7739 111.767 18.8098 111.168 18.2269C109.328 16.5455 109.616 16.7921 107.776 15.1107C105.869 13.3844 104.539 11.9271 103.807 10.7612C103.12 9.68516 102.765 8.56424 102.765 7.44321C102.765 6.14287 103.208 5.11165 104.095 4.28212C105.027 3.43021 106.091 3.02663 107.399 3.02663C108.685 3.02663 109.86 3.36288 110.858 4.03548C111.479 4.48391 112.122 5.08917 112.787 5.87385C112.787 5.87385 112.787 5.87385 112.765 5.87385C112.942 6.12049 113.252 6.5913 113.386 7.28627C113.541 8.18303 113.275 8.90048 113.142 9.1695C113.652 9.1695 114.36 8.92286 114.937 8.29512C115.513 7.645 116.245 5.24611 114.671 3.36288C114.272 2.89207 113.873 2.33166 112.632 1.50213C111.146 0.515661 109.305 0 107.222 0C105.049 0 103.186 0.717449 101.702 2.08502Z" fill="url(#paint0_linear_0_20)"/>
<path d="M101.702 2.08502C100.216 3.47496 99.4619 5.24611 99.4619 7.3535C99.4619 8.11581 99.5506 8.85563 99.7502 9.57308C99.8167 8.7884 100.038 7.44321 100.948 6.12049C103.075 3.04901 106.978 3.02663 107.399 3.02663C108.685 3.02663 109.86 3.36288 110.858 4.03548C111.479 4.48391 112.122 5.08917 112.787 5.87385C112.787 5.87385 112.787 5.87385 112.765 5.87385C112.942 6.12049 113.252 6.5913 113.386 7.28627C113.541 8.18303 113.275 8.90048 113.142 9.1695C113.652 9.1695 114.36 8.92286 114.937 8.29512C115.513 7.645 116.245 5.24611 114.671 3.36288C114.272 2.89207 113.873 2.33166 112.632 1.50213C111.146 0.515661 109.305 0 107.222 0C105.049 0 103.186 0.717449 101.702 2.08502Z" fill="url(#paint1_linear_0_20)"/>
</g>
<path id="Vector_3" d="M119.104 0C116.998 0 115.18 0.493184 113.695 1.50213C113.273 1.79352 112.941 2.04016 112.675 2.28681C112.586 2.35404 112.497 2.44374 112.431 2.51097C112.098 2.82484 111.876 3.11634 111.677 3.36288C110.103 5.22373 110.813 7.645 111.411 8.29512C111.987 8.92286 112.697 9.1695 113.207 9.1695C113.096 8.90048 112.808 8.18303 112.963 7.28627C113.074 6.5913 113.406 6.12049 113.584 5.87385C114.227 5.08917 114.87 4.46143 115.513 4.03548C116.511 3.36288 117.685 3.02663 118.971 3.02663C120.257 3.02663 121.344 3.43021 122.275 4.28212C123.183 5.11165 123.605 6.14287 123.605 7.44321C123.605 8.54176 123.25 9.66279 122.564 10.7613C121.832 11.9046 120.501 13.3619 118.594 15.1107L112.209 21.5449C112.209 21.5449 112.209 21.5449 112.187 21.5674C111.921 21.8364 111.743 22.2175 111.743 22.6435C111.743 23.4955 112.431 24.1905 113.273 24.1905C113.673 24.1905 114.05 24.0335 114.316 23.7645L114.338 23.742L114.36 23.7197L120.745 17.2629C123.028 15.1779 124.536 13.5413 125.401 12.2634C126.399 10.7613 126.909 9.10227 126.909 7.37598C126.909 5.26859 126.155 3.49744 124.669 2.10739C123.161 0.71745 121.3 0 119.104 0Z" fill="url(#paint2_linear_0_20)"/>
<path id="Vector_4" d="M57.6419 0.35829C58.2405 0.35829 58.8392 0.403599 59.4156 0.51578C60.79 0.695081 62.0981 1.18798 63.3174 1.88299C64.9802 2.84695 66.4219 4.12457 67.4417 5.76118L67.863 6.45611L64.471 9.48287L54.4497 18.4283C55.4252 18.9663 56.4896 19.1912 57.6202 19.1912C58.9281 19.1911 60.1252 18.8547 61.2336 18.1822C62.3421 17.5097 63.1844 16.5675 63.783 15.4242L64.2486 14.5275L68.3059 16.8367L67.863 17.6665C66.8653 19.5496 65.4459 21.0517 63.6501 22.1726C62.8523 22.6658 62.0542 23.0464 61.212 23.3154C60.0591 23.6965 58.8391 23.8991 57.5976 23.8991C56.3339 23.8991 55.1365 23.6965 54.0058 23.3154C52.2988 22.7549 50.7687 21.7691 49.4386 20.3792C48.5296 19.4377 47.7535 18.4064 47.1993 17.2855C46.4233 15.7162 46.0024 13.9893 46.0024 12.1061C46.0024 8.85532 47.1777 6.05266 49.4612 3.76598C51.5009 1.72597 53.94 0.58271 56.7333 0.380929C57.0436 0.380911 57.3316 0.358297 57.6419 0.35829ZM23.188 23.7643L22.8553 23.5172L19.2645 20.895C18.1116 21.9487 16.8692 22.711 15.4946 23.2042H15.4729C15.3842 23.249 15.2732 23.2706 15.1845 23.3154C14.9406 23.4051 14.6966 23.4726 14.4305 23.5398C13.5216 23.7641 12.546 23.8765 11.5485 23.8765C10.551 23.8765 9.59787 23.764 8.68902 23.5398C6.67149 23.0243 4.89714 21.9701 3.34519 20.4009C1.10617 18.1141 -0.091049 15.3343 -0.091049 12.1061C-0.0910314 8.85538 1.08386 6.053 3.38948 3.78862C3.56685 3.60931 3.74463 3.45242 3.922 3.29548C6.07256 1.36741 8.62238 0.35829 11.5711 0.35829C14.5197 0.358362 17.0918 1.36773 19.2645 3.31812L23.188 0.335651V23.7643ZM28.9964 3.04842C30.6369 1.61357 32.5884 0.919402 34.7832 0.919348C37.2883 0.919348 39.4613 1.77065 41.2127 3.54156C42.9864 5.3127 43.829 7.51032 43.829 10.0213V23.8312H39.1289V10.0439C39.1289 8.81092 38.7518 7.7567 37.865 6.88232C37.0004 6.03058 35.9807 5.62738 34.7615 5.62732C33.5643 5.62732 32.5443 6.03069 31.6796 6.90496C30.8372 7.75697 30.4158 8.78818 30.4158 10.0213V23.8765H25.76V0.403568L28.9964 3.04842ZM74.514 0.35829L77.4403 5.5594L80.3667 0.35829H85.8651L80.2112 10.4475L87.7491 23.8765H82.229L77.4403 15.3346L72.629 23.8765H67.109L74.7128 10.4475L68.993 0.35829H74.514ZM11.5711 5.04362C9.62006 5.04362 7.97883 5.69416 6.60425 7.0841C6.47127 7.21862 6.38238 7.3306 6.27155 7.46503C5.11869 8.78783 4.58739 10.3351 4.58739 12.1287C4.58741 14.0791 5.22971 15.7608 6.60425 17.1507C7.97883 18.5407 9.62006 19.1902 11.5711 19.1902C12.0143 19.1901 12.4134 19.1462 12.8123 19.0789C14.209 18.8548 15.4511 18.2042 16.5153 17.128C17.8897 15.738 18.5548 14.0789 18.5548 12.1061C18.5548 10.1558 17.8897 8.49661 16.5153 7.10674C15.1408 5.71677 13.4998 5.04369 11.5711 5.04362ZM57.5976 5.04362C55.9348 5.04364 54.4717 5.51537 53.2302 6.54667H53.2075C53.0083 6.70349 52.831 6.90496 52.6317 7.0841C51.5232 8.20502 50.9019 9.50546 50.7025 11.0076C50.6581 11.3663 50.6365 11.725 50.6365 12.1061C50.6365 13.1598 50.8353 14.1243 51.2566 15.0659L61.2563 6.07518C60.1477 5.38011 58.9277 5.04362 57.5976 5.04362Z" fill="var(--fill-0, #EC1C24)"/>
</g>
<defs>
<linearGradient id="paint0_linear_0_20" x1="99.4447" y1="10.4725" x2="114.989" y2="10.4725" gradientUnits="userSpaceOnUse">
<stop stop-color="#871719"/>
<stop offset="0.45" stop-color="#DA1F26"/>
<stop offset="1" stop-color="#F0564B"/>
</linearGradient>
<linearGradient id="paint1_linear_0_20" x1="99.4447" y1="4.8128" x2="114.989" y2="4.8128" gradientUnits="userSpaceOnUse">
<stop stop-color="#F0564B"/>
<stop offset="0.55" stop-color="#DA1F26"/>
<stop offset="1" stop-color="#871719"/>
</linearGradient>
<linearGradient id="paint2_linear_0_20" x1="116.79" y1="4.42692" x2="123.138" y2="17.0243" gradientUnits="userSpaceOnUse">
<stop stop-color="#EC1C24"/>
<stop offset="0.1279" stop-color="#EC1C24"/>
<stop offset="0.204" stop-color="#CB2037"/>
<stop offset="0.5673" stop-color="#2E3191"/>
<stop offset="1" stop-color="#2E3191"/>
</linearGradient>
<clipPath id="clip0_0_20">
<rect width="127" height="24.1905" fill="white"/>
</clipPath>
</defs>
</svg>
