<svg width="134" height="36" overflow="visible" style="display: block;" viewBox="0 0 134 36" fill="none" xmlns="http://www.w3.org/2000/svg">
<g id="Logo-Rixos">
<path id="Vector" fill-rule="evenodd" clip-rule="evenodd" d="M57.5865 30.3448C58.3377 30.3448 58.9699 30.589 59.4825 31.0741C60.0396 31.5999 60.3172 32.3005 60.3172 33.1741C60.3172 34.0633 60.0298 34.7703 59.4534 35.2951C58.9385 35.7658 58.3165 35.9994 57.5865 36C56.8051 36 56.1582 35.7398 55.6418 35.2195C55.1189 34.6892 54.857 34.0074 54.857 33.1741C54.857 32.3005 55.1359 31.5981 55.6951 31.07C56.2081 30.5869 56.838 30.3457 57.5865 30.3448ZM79.2117 30.3448V30.5C78.8569 30.5158 78.6185 30.5659 78.4953 30.6503C78.3755 30.735 78.3167 30.9143 78.3167 31.1923V35.1981C78.3167 35.2911 78.3342 35.3644 78.368 35.4184C78.4054 35.47 78.4863 35.5024 78.6085 35.516C78.6819 35.524 78.7565 35.5295 78.8355 35.532C78.9172 35.5353 79.0668 35.5366 79.2875 35.5366C80.145 35.5366 80.7239 35.4753 81.0264 35.3524C81.3275 35.2304 81.6191 34.919 81.9017 34.4168H82.1484L81.6755 35.8621H76.483V35.7115C76.8382 35.6785 77.0671 35.625 77.1711 35.5486C77.2788 35.47 77.3316 35.2727 77.3316 34.9579V31.249C77.3316 30.9527 77.2796 30.7606 77.1765 30.6709C77.0728 30.5785 76.8426 30.5216 76.483 30.5V30.3448H79.2117ZM49.5187 30.3448V30.5C49.2125 30.5216 49.0135 30.5773 48.9224 30.6663C48.8302 30.756 48.7842 30.9506 48.7842 31.249V32.873H51.3002V31.249C51.3002 30.9506 51.2561 30.756 51.1675 30.6663C51.078 30.5773 50.8791 30.5216 50.5723 30.5V30.3448H52.8771V30.5C52.573 30.5216 52.3732 30.5773 52.2821 30.6663C52.192 30.756 52.1481 30.9506 52.1481 31.249V34.9579C52.1481 35.2619 52.192 35.4581 52.2821 35.5446C52.3732 35.6284 52.573 35.6844 52.8771 35.7115V35.8621H50.5723V35.7115C50.8987 35.6785 51.101 35.6191 51.1784 35.532C51.2599 35.4455 51.3002 35.2218 51.3002 34.8594V33.2398H48.7842V34.9579C48.7842 35.2619 48.8302 35.4581 48.9224 35.5446C49.0135 35.6315 49.2125 35.6872 49.5187 35.7115V35.8621H47.2117V35.7115C47.5363 35.6758 47.7386 35.6164 47.8199 35.532C47.9008 35.4455 47.9416 35.2218 47.9416 34.8594V31.249C47.9416 30.9506 47.8949 30.756 47.8036 30.6663C47.7141 30.5773 47.5173 30.5216 47.2117 30.5V30.3448H49.5187ZM67.9329 30.3448L67.9849 31.7618H67.7509C67.6355 31.3171 67.4872 31.0273 67.3089 30.8946C67.1328 30.7593 66.7601 30.6905 66.1903 30.6905H65.6419V34.9581C65.6419 35.2815 65.7025 35.482 65.8206 35.5605C65.9382 35.6372 66.1975 35.6871 66.5982 35.7117V35.8621H63.7329V35.7117C64.1482 35.684 64.4074 35.6258 64.5085 35.5362C64.612 35.4463 64.6635 35.2214 64.6635 34.8604V30.6905H64.1162C63.5715 30.6905 63.2003 30.7581 63.0027 30.8908C62.8065 31.0239 62.6597 31.3135 62.5606 31.7618H62.3195L62.3769 30.3448H67.9329ZM87.4397 30.3448L87.6232 32.0503H87.4229C87.2872 31.5363 87.0662 31.1782 86.763 30.9747C86.4615 30.7709 86.1634 30.6701 85.8666 30.6701C85.6377 30.6701 85.4361 30.7354 85.2638 30.8651C85.0933 30.9931 85.0091 31.1713 85.0091 31.4014C85.0091 31.6067 85.0747 31.7835 85.2058 31.9293C85.3375 32.0775 85.5418 32.2328 85.8174 32.3939L86.5572 32.8286C87.0198 33.0992 87.3446 33.3474 87.5347 33.5751C87.7198 33.8045 87.8123 34.0755 87.8138 34.3887C87.8138 34.8083 87.6461 35.1586 87.3124 35.44C86.9804 35.7213 86.5572 35.8621 86.0404 35.8621C85.7793 35.8621 85.5073 35.8151 85.2225 35.7213C84.9409 35.6278 84.7793 35.5808 84.7381 35.5808C84.6394 35.5808 84.5731 35.6092 84.5378 35.6669C84.5045 35.7246 84.4825 35.7854 84.4706 35.85H84.2869L84.0369 34.1459H84.2291C84.3707 34.5058 84.5384 34.7924 84.73 35.0061C85.0641 35.3791 85.4787 35.5649 85.973 35.5649C86.2419 35.5649 86.4729 35.4846 86.6679 35.3229C86.8646 35.1612 86.9633 34.9355 86.9633 34.6466C86.9633 34.3855 86.8646 34.1592 86.6679 33.9653C86.5386 33.8431 86.268 33.66 85.8547 33.4146L85.1374 32.9889C84.9197 32.8583 84.7474 32.7264 84.6182 32.5935C84.3815 32.3404 84.2615 32.0624 84.2615 31.7569C84.2615 31.353 84.4027 31.0165 84.6853 30.7479C84.9669 30.4799 85.3396 30.3454 85.8054 30.3448C85.9972 30.3448 86.2277 30.3906 86.4954 30.4825C86.7662 30.5711 86.9207 30.6154 86.9599 30.6154C87.063 30.6154 87.1343 30.592 87.172 30.5453C87.2142 30.4983 87.2447 30.4317 87.2673 30.3448H87.4397ZM74.0657 30.3448L74.0976 31.5421H73.8522C73.7704 31.1732 73.6472 30.9342 73.4841 30.8253C73.3212 30.7171 72.9555 30.6623 72.3892 30.6623H71.076C70.9345 30.6623 70.8473 30.6827 70.812 30.7236C70.7806 30.7621 70.7648 30.8345 70.7648 30.9435V32.8043H72.2529C72.6638 32.8043 72.927 32.751 73.0405 32.6454C73.1537 32.54 73.2455 32.3254 73.3144 32.002H73.5406V33.9321H73.3144C73.2423 33.6096 73.1498 33.3958 73.0366 33.2927C72.9231 33.1873 72.6616 33.1338 72.2529 33.1338H70.7648V35.1981C70.7648 35.3644 70.8259 35.4621 70.9445 35.4917C71.067 35.5215 71.4312 35.5366 72.0357 35.5366C72.6899 35.5366 73.1727 35.4753 73.4841 35.3524C73.7955 35.2277 74.0764 34.9283 74.3243 34.4537H74.5945L74.1546 35.8621H68.9291V35.7115C69.2841 35.6785 69.5127 35.625 69.6186 35.5486C69.725 35.47 69.779 35.2727 69.779 34.9579V31.249C69.779 30.9527 69.7262 30.7606 69.6225 30.6709C69.519 30.5785 69.288 30.5216 68.9291 30.5V30.3448H74.0657ZM57.5865 30.642C57.0879 30.642 56.6645 30.849 56.317 31.2621C55.9727 31.6734 55.8015 32.3102 55.8015 33.1741C55.8015 34.0367 55.9727 34.6743 56.317 35.0875C56.6626 35.4985 57.0852 35.7035 57.5865 35.7035C58.0783 35.7035 58.4967 35.5037 58.8442 35.1036C59.1944 34.7009 59.3684 34.0579 59.3684 33.1741C59.3684 32.2809 59.193 31.6356 58.8394 31.238C58.4875 30.8405 58.0706 30.6428 57.5865 30.642ZM61.1204 4.68305L67.0011 12.9738L72.8805 4.68305H75.7587L68.8022 15.0495L75.2075 24.5445L134 24.6274L122.412 26.3979L73.6016 26.5631L67.0011 16.8897L60.3997 26.5631L11.5899 26.3979L0 24.6274L58.7937 24.5445L65.1987 15.0495L58.2428 4.68305H61.1204ZM112.467 8.27586L112.884 12.5379H112.43C112.122 11.2543 111.627 10.3579 110.944 9.84928C110.266 9.34127 109.595 9.08738 108.93 9.08738C108.413 9.08738 107.959 9.25033 107.572 9.57646C107.191 9.89497 106.999 10.3414 106.999 10.9151C106.999 11.4301 107.148 11.8704 107.442 12.2349C107.738 12.6069 108.196 12.9939 108.819 13.398L110.481 14.483C111.522 15.1607 112.255 15.7829 112.681 16.3499C113.099 16.9236 113.307 17.6017 113.308 18.3834C113.308 19.4323 112.933 20.3089 112.182 21.0131C111.436 21.7167 110.481 22.069 109.317 22.069C108.733 22.069 108.12 21.9513 107.48 21.7167C106.845 21.4822 106.481 21.3645 106.39 21.3645C106.168 21.3645 106.016 21.4363 105.937 21.5805C105.863 21.7237 105.813 21.876 105.789 22.0387H105.374L104.81 17.7775H105.244C105.564 18.6767 105.94 19.394 106.37 19.9279C107.123 20.86 108.056 21.3264 109.17 21.3264C109.773 21.3264 110.293 21.1239 110.731 20.7199C111.175 20.3158 111.396 19.7515 111.396 19.0287C111.396 18.3771 111.175 17.8104 110.731 17.3276C110.442 17.0213 109.832 16.5618 108.901 15.9498L107.287 14.8837C106.799 14.5591 106.412 14.2295 106.122 13.8971C105.586 13.2646 105.318 12.568 105.318 11.8047C105.318 10.7942 105.635 9.95393 106.269 9.28296C106.904 8.61156 107.744 8.27586 108.791 8.27586C109.222 8.27586 109.74 8.39073 110.342 8.61765C110.953 8.83979 111.3 8.95009 111.387 8.95009C111.62 8.95009 111.781 8.892 111.867 8.77495C111.96 8.65747 112.031 8.49125 112.079 8.27586H112.467ZM87.8139 8.27586C89.6335 8.27586 91.1624 8.86769 92.4039 10.0524C93.751 11.3341 94.4234 13.0433 94.4234 15.1777C94.4234 17.3445 93.7276 19.0701 92.3344 20.3504C91.0872 21.496 89.5798 22.069 87.8139 22.069C85.9233 22.069 84.3536 21.4354 83.1066 20.1659C81.8388 18.8706 81.2041 17.2085 81.2041 15.1777C81.2041 13.0433 81.8807 11.3315 83.234 10.0429C84.4748 8.86509 86.0018 8.27651 87.8139 8.27586ZM87.8139 8.99827C86.6053 8.99827 85.5808 9.50276 84.7416 10.5113C83.907 11.5138 83.4902 13.0692 83.4902 15.1777C83.4902 17.2796 83.907 18.8352 84.7416 19.8437C85.5747 20.8462 86.5991 21.3466 87.8139 21.3466C89.0017 21.3466 90.0171 20.8584 90.8577 19.8826C91.7054 18.8999 92.1283 17.3315 92.1283 15.1777C92.1283 12.9977 91.7019 11.423 90.848 10.4526C89.9939 9.48299 88.9824 8.99892 87.8139 8.99827ZM49.1002 8.27586V8.63745C48.3208 8.6753 47.816 8.799 47.5857 9.00771C47.3549 9.21028 47.2399 9.67019 47.2399 10.3853V19.0406C47.2399 19.7942 47.3549 20.2628 47.5857 20.4461C47.816 20.6237 48.3208 20.7407 49.1002 20.7978V21.1494H43.4348V20.7978C44.2136 20.7407 44.719 20.6237 44.9491 20.4461C45.18 20.2628 45.2951 19.7942 45.2951 19.0406V10.3853C45.2951 9.67019 45.18 9.21028 44.9491 9.00771C44.719 8.799 44.2136 8.6753 43.4348 8.63745V8.27586H49.1002ZM26.0615 8.27586C27.1625 8.27586 28.0791 8.4186 28.8139 8.70322C30.2057 9.24201 30.9033 10.2329 30.9033 11.6772C30.9033 12.6467 30.5928 13.391 29.9703 13.9102C29.355 14.4299 28.5152 14.7714 27.4509 14.9355L31.3887 19.8667C31.6308 20.1712 31.8729 20.393 32.1158 20.532C32.3579 20.6715 32.6685 20.7599 33.0482 20.7978V21.1494H29.9703L25.4177 15.1641L24.3548 15.2108V19.0408C24.3548 19.7631 24.4606 20.2215 24.6726 20.4184C24.8898 20.6085 25.359 20.7348 26.08 20.7978V21.1494H20.7732V20.7978C21.5067 20.728 21.9632 20.5825 22.1441 20.3607C22.3236 20.1393 22.4142 19.6229 22.4142 18.8122V10.3852C22.4142 9.70067 22.3124 9.2547 22.1063 9.04599C21.9074 8.83073 21.4635 8.69455 20.7732 8.63746V8.27586H26.0615ZM25.5307 9.01745C24.9884 9.01745 24.6562 9.05804 24.5322 9.1403C24.4135 9.21685 24.3548 9.40018 24.3548 9.692V14.4904C25.7296 14.4384 26.7116 14.2929 27.3029 14.0523C28.3162 13.6283 28.8224 12.8302 28.8224 11.6579C28.8224 10.5306 28.369 9.76114 27.4615 9.34964C26.9765 9.12783 26.3319 9.01808 25.5307 9.01745ZM67.0409 0L68.5745 2.01415L67.7067 6.91381L69.5002 2.01415H71.7618L67.0409 9.1954L62.3195 2.01415H64.581L66.376 6.91381L65.5076 2.01415L67.0409 0Z" fill="var(--fill-0, white)"/>
</g>
</svg>
